<svg width="239" height="236" viewBox="0 0 239 236" fill="none" xmlns="http://www.w3.org/2000/svg">
<mask id="mask0_114_43" style="mask-type:alpha" maskUnits="userSpaceOnUse" x="10" y="33" width="219" height="203">
<path d="M119.5 235.317C179.498 235.317 228.136 190.227 228.136 134.607C228.136 78.9869 179.498 33.8977 119.5 33.8977C59.5018 33.8977 10.8636 78.9869 10.8636 134.607C10.8636 190.227 59.5018 235.317 119.5 235.317Z" fill="white"/>
</mask>
<g mask="url(#mask0_114_43)">
<path d="M119.5 235.317C179.498 235.317 228.136 190.227 228.136 134.607C228.136 78.9869 179.498 33.8977 119.5 33.8977C59.5018 33.8977 10.8636 78.9869 10.8636 134.607C10.8636 190.227 59.5018 235.317 119.5 235.317Z" fill="#E6E6E6"/>
<path d="M228.136 33.8977H10.8636V235.317H228.136V33.8977Z" fill="#FF6569"/>
</g>
<mask id="mask1_114_43" style="mask-type:alpha" maskUnits="userSpaceOnUse" x="0" y="0" width="239" height="236">
<path d="M10.8636 134.607C10.8636 190.227 59.5018 235.317 119.5 235.317C179.498 235.317 228.136 190.227 228.136 134.607H239V0.327759H0V134.607H10.8636Z" fill="white"/>
</mask>
<g mask="url(#mask1_114_43)">
<mask id="mask2_114_43" style="mask-type:alpha" maskUnits="userSpaceOnUse" x="28" y="30" width="183" height="206">
<path d="M141.227 151.905V167.338H144.849C180.847 167.338 210.03 194.391 210.03 227.763V235.317H28.9697V227.763C28.9697 194.391 58.1526 167.338 94.1516 167.338H97.7728V151.905C82.1677 145.033 70.9506 130.987 69.0793 114.366C63.8061 113.674 59.75 109.473 59.75 104.394V92.6448C59.75 87.6547 63.6651 83.5122 68.8031 82.7131V77.5384C68.8031 51.5823 91.5009 30.5406 119.5 30.5406C147.499 30.5406 170.197 51.5823 170.197 77.5384V82.7131C175.335 83.5122 179.25 87.6547 179.25 92.6448V104.394C179.25 109.473 175.194 113.674 169.921 114.366C168.049 130.987 156.832 145.033 141.227 151.905Z" fill="white"/>
</mask>
<g mask="url(#mask2_114_43)">
<path d="M141.227 151.905V167.338H144.849C180.847 167.338 210.03 194.391 210.03 227.763V235.317H28.9697V227.763C28.9697 194.391 58.1526 167.338 94.1516 167.338H97.7728V151.905C82.1677 145.033 70.9506 130.987 69.0793 114.366C63.8061 113.674 59.75 109.473 59.75 104.394V92.6448C59.75 87.6547 63.6651 83.5122 68.8031 82.7131V77.5384C68.8031 51.5823 91.5009 30.5406 119.5 30.5406C147.499 30.5406 170.197 51.5823 170.197 77.5384V82.7131C175.335 83.5122 179.25 87.6547 179.25 92.6448V104.394C179.25 109.473 175.194 113.674 169.921 114.366C168.049 130.987 156.832 145.033 141.227 151.905Z" fill="#D0C6AC"/>
<path d="M239 30.5406H0V235.317H239V30.5406Z" fill="#EDB98A"/>
<path fill-rule="evenodd" clip-rule="evenodd" d="M170.197 96.8409V116.144C170.197 142.1 147.499 163.141 119.5 163.141C91.5008 163.141 68.803 142.1 68.803 116.144V96.8409V109.43C68.803 135.386 91.5008 156.427 119.5 156.427C147.499 156.427 170.197 135.386 170.197 109.43V96.8409Z" fill="black" fill-opacity="0.1"/>
</g>
<mask id="mask3_114_43" style="mask-type:alpha" maskUnits="userSpaceOnUse" x="28" y="153" width="183" height="83">
<path fill-rule="evenodd" clip-rule="evenodd" d="M97.7728 153.969C81.5509 155.652 69.0564 160.248 68.8069 172.075C45.3977 181.242 28.9697 202.724 28.9697 227.763V235.317H210.03V227.763C210.03 202.724 193.602 181.242 170.193 172.075C169.944 160.248 157.449 155.652 141.227 153.969V169.855C141.227 180.98 131.5 189.997 119.5 189.997C107.5 189.997 97.7728 180.98 97.7728 169.855V153.969Z" fill="white"/>
</mask>
<g mask="url(#mask3_114_43)">
<path fill-rule="evenodd" clip-rule="evenodd" d="M97.7728 153.969C81.5509 155.652 69.0564 160.248 68.8069 172.075C45.3977 181.242 28.9697 202.724 28.9697 227.763V235.317H210.03V227.763C210.03 202.724 193.602 181.242 170.193 172.075C169.944 160.248 157.449 155.652 141.227 153.969V169.855C141.227 180.98 131.5 189.997 119.5 189.997C107.5 189.997 97.7728 180.98 97.7728 169.855V153.969Z" fill="#B7C1DB"/>
<path d="M239 143H0V235.317H239V143Z" fill="#262E33"/>
<path fill-rule="evenodd" clip-rule="evenodd" d="M92.341 194.814V235.317H86.0038V191.802C87.9989 192.901 90.12 193.909 92.341 194.814ZM152.996 191.802V225.665C152.996 227.288 151.578 228.603 149.828 228.603C148.078 228.603 146.659 227.288 146.659 225.665V194.814C148.88 193.909 151.001 192.901 152.996 191.802Z" fill="#F4F4F4"/>
<path fill-rule="evenodd" clip-rule="evenodd" d="M82.3465 153.681C68.7209 156.07 59.2974 160.83 59.2974 170.116C59.2974 186.66 89.2065 200.071 119.5 200.071C149.794 200.071 179.703 186.66 179.703 170.116C179.703 160.83 170.279 156.07 156.654 153.681C164.878 156.493 170.197 161.219 170.197 169.084C170.197 186.198 145.01 200.071 119.5 200.071C93.9897 200.071 68.803 186.198 68.803 169.084C68.803 161.219 74.1218 156.493 82.3465 153.681Z" fill="black" fill-opacity="0.16"/>
</g>
<mask id="mask4_114_43" style="mask-type:alpha" maskUnits="userSpaceOnUse" x="102" y="123" width="35" height="17">
<path fill-rule="evenodd" clip-rule="evenodd" d="M102.406 125.483C103.364 133.449 110.652 139.643 119.5 139.643C128.376 139.643 135.681 133.41 136.603 125.409C136.677 124.765 135.901 123.697 134.929 123.697C121.445 123.697 111.115 123.697 104.188 123.697C103.211 123.697 102.31 124.686 102.406 125.483Z" fill="white"/>
</mask>
<g mask="url(#mask4_114_43)">
<path fill-rule="evenodd" clip-rule="evenodd" d="M102.406 125.483C103.364 133.449 110.652 139.643 119.5 139.643C128.376 139.643 135.681 133.41 136.603 125.409C136.677 124.765 135.901 123.697 134.929 123.697C121.445 123.697 111.115 123.697 104.188 123.697C103.211 123.697 102.31 124.686 102.406 125.483Z" fill="black" fill-opacity="0.7"/>
<path d="M129.458 114.465H110.447C107.947 114.465 105.92 116.344 105.92 118.661V123.697C105.92 126.014 107.947 127.893 110.447 127.893H129.458C131.958 127.893 133.985 126.014 133.985 123.697V118.661C133.985 116.344 131.958 114.465 129.458 114.465Z" fill="white"/>
<path d="M114.973 151.392C120.473 151.392 124.932 147.259 124.932 142.16C124.932 137.062 120.473 132.929 114.973 132.929C109.474 132.929 105.015 137.062 105.015 142.16C105.015 147.259 109.474 151.392 114.973 151.392Z" fill="#FF4F6D"/>
<path d="M124.027 151.392C129.526 151.392 133.985 147.259 133.985 142.16C133.985 137.062 129.526 132.929 124.027 132.929C118.527 132.929 114.068 137.062 114.068 142.16C114.068 147.259 118.527 151.392 124.027 151.392Z" fill="#FF4F6D"/>
</g>
<path fill-rule="evenodd" clip-rule="evenodd" d="M108.636 109.43C108.636 113.138 113.5 116.144 119.5 116.144C125.5 116.144 130.364 113.138 130.364 109.43" fill="black" fill-opacity="0.16"/>
<path d="M95.9621 99.3588C98.962 99.3588 101.394 97.1043 101.394 94.3232C101.394 91.5422 98.962 89.2877 95.9621 89.2877C92.9622 89.2877 90.5303 91.5422 90.5303 94.3232C90.5303 97.1043 92.9622 99.3588 95.9621 99.3588Z" fill="black" fill-opacity="0.6"/>
<path d="M143.038 99.3587C146.038 99.3587 148.47 97.1042 148.47 94.3232C148.47 91.5421 146.038 89.2877 143.038 89.2877C140.038 89.2877 137.606 91.5421 137.606 94.3232C137.606 97.1042 140.038 99.3587 143.038 99.3587Z" fill="black" fill-opacity="0.6"/>
<path fill-rule="evenodd" clip-rule="evenodd" d="M92.8376 74.305C87.5803 74.5305 79.0808 78.0724 79.2993 82.9869C79.3065 83.1478 79.5614 83.2184 79.6859 83.0946C82.1802 80.6109 99.889 78.0999 106.126 79.4294C106.697 79.5512 107.131 79.0292 106.769 78.6521C103.671 75.4227 97.5475 74.0987 92.8376 74.305Z" fill="black" fill-opacity="0.6"/>
<path fill-rule="evenodd" clip-rule="evenodd" d="M147.07 74.305C152.327 74.5305 160.827 78.0724 160.608 82.9869C160.601 83.1478 160.346 83.2184 160.221 83.0946C157.727 80.6109 140.018 78.0999 133.781 79.4294C133.21 79.5512 132.777 79.0292 133.138 78.6521C136.236 75.4227 142.36 74.0987 147.07 74.305Z" fill="black" fill-opacity="0.6"/>
<mask id="mask5_114_43" style="mask-type:alpha" maskUnits="userSpaceOnUse" x="0" y="0" width="239" height="236">
<path d="M239 0.327759H0V235.317H239V0.327759Z" fill="white"/>
</mask>
<g mask="url(#mask5_114_43)">
<mask id="mask6_114_43" style="mask-type:alpha" maskUnits="userSpaceOnUse" x="67" y="29" width="105" height="55">
<path fill-rule="evenodd" clip-rule="evenodd" d="M67.8977 82.5739C68.2117 83.823 69.4121 83.6 69.7083 82.5739C69.2894 81.2694 72.6921 58.4439 81.4773 52.361C84.7528 50.249 102.307 48.3594 119.783 48.3709C137.071 48.3822 154.282 50.2718 157.523 52.361C166.308 58.4439 169.711 81.2694 169.292 82.5739C169.588 83.6 170.788 83.823 171.102 82.5739C171.753 73.9312 171.102 29.0924 119.5 29.7014C67.8977 30.3104 67.2466 73.9312 67.8977 82.5739Z" fill="white"/>
</mask>
<g mask="url(#mask6_114_43)">
<path fill-rule="evenodd" clip-rule="evenodd" d="M67.8977 82.5739C68.2117 83.823 69.4121 83.6 69.7083 82.5739C69.2894 81.2694 72.6921 58.4439 81.4773 52.361C84.7528 50.249 102.307 48.3594 119.783 48.3709C137.071 48.3822 154.282 50.2718 157.523 52.361C166.308 58.4439 169.711 81.2694 169.292 82.5739C169.588 83.6 170.788 83.823 171.102 82.5739C171.753 73.9312 171.102 29.0924 119.5 29.7014C67.8977 30.3104 67.2466 73.9312 67.8977 82.5739Z" fill="#28354B"/>
<path d="M305.992 28.8625H66.9924V263.851H305.992V28.8625Z" fill="#4A312C"/>
</g>
<g filter="url(#filter0_d_114_43)">
<path d="M91.4356 111.948H88.9389C76.3303 111.948 68.803 105.516 68.803 94.7431C68.803 86.0376 70.4479 77.5385 90.1047 77.5385H92.7664C112.423 77.5385 114.068 86.0376 114.068 94.7431C114.068 104.872 104.763 111.948 91.4356 111.948ZM89.9738 82.574C72.4242 82.574 72.4242 88.3153 72.4242 95.5837C72.4242 101.518 75.2453 108.591 88.6933 108.591H91.4356C102.63 108.591 110.447 103.242 110.447 95.5837C110.447 88.3153 110.447 82.574 92.8973 82.574H89.9738Z" fill="#252C2F"/>
<path d="M147.564 111.948H145.068C132.459 111.948 124.932 105.516 124.932 94.7431C124.932 86.0376 126.577 77.5385 146.234 77.5385H148.895C168.552 77.5385 170.197 86.0376 170.197 94.7431C170.197 104.872 160.892 111.948 147.564 111.948ZM146.103 82.574C128.553 82.574 128.553 88.3153 128.553 95.5837C128.553 101.518 131.377 108.591 144.822 108.591H147.564C158.758 108.591 166.576 103.242 166.576 95.5837C166.576 88.3153 166.576 82.574 149.026 82.574H146.103Z" fill="#252C2F"/>
<path d="M63.33 82.3822C63.9559 81.8155 70.8033 77.5385 90.0776 77.5385C106.239 77.5385 109.66 79.0933 114.838 81.4425L115.217 81.6159C115.577 81.7339 117.418 82.3136 119.572 82.3774C121.534 82.2993 123.212 81.8064 123.702 81.6484C129.613 78.9837 135.398 77.5385 148.922 77.5385C168.197 77.5385 175.044 81.8155 175.67 82.3822C177.149 82.3822 178.345 83.4648 178.345 84.8041V87.226C178.345 88.5653 177.149 89.6478 175.67 89.6478C175.67 89.6478 169.422 89.6478 169.422 92.0697C169.422 94.4916 167.646 88.5653 167.646 87.226V84.8671C164.384 83.7098 158.544 81.5552 148.922 81.5552C138.202 81.5552 132.863 83.3175 128.284 85.0674L128.335 85.1819L128.332 86.8488L126.325 91.3387L123.846 90.43C123.624 90.3488 123.147 90.203 122.484 90.0515C120.637 89.6292 118.739 89.5007 117.059 89.8202C116.443 89.9375 115.872 90.1134 115.347 90.351L112.955 91.4346L110.562 87.1027L110.668 85.1771L110.741 85.0135C106.791 83.3073 103.15 81.5552 90.0776 81.5552C80.4562 81.5552 74.617 83.709 71.3543 84.8663V87.226C71.3543 88.5653 68.6796 94.4916 68.6796 92.0697C68.6796 89.6478 63.33 89.6478 63.33 89.6478C61.8536 89.6478 60.6553 88.5653 60.6553 87.226V84.8041C60.6553 83.4648 61.8536 82.3822 63.33 82.3822Z" fill="#252C2F"/>
</g>
</g>
</g>
<defs>
<filter id="filter0_d_114_43" x="53.8371" y="74.1294" width="131.326" height="48.0457" filterUnits="userSpaceOnUse" color-interpolation-filters="sRGB">
<feFlood flood-opacity="0" result="BackgroundImageFix"/>
<feColorMatrix in="SourceAlpha" type="matrix" values="0 0 0 0 0 0 0 0 0 0 0 0 0 0 0 0 0 0 127 0" result="hardAlpha"/>
<feOffset dy="3.40909"/>
<feGaussianBlur stdDeviation="3.40909"/>
<feColorMatrix type="matrix" values="0 0 0 0 0 0 0 0 0 0 0 0 0 0 0 0 0 0 0.2 0"/>
<feBlend mode="normal" in2="BackgroundImageFix" result="effect1_dropShadow_114_43"/>
<feBlend mode="normal" in="SourceGraphic" in2="effect1_dropShadow_114_43" result="shape"/>
</filter>
</defs>
</svg>
