<svg xmlns="http://www.w3.org/2000/svg" xmlns:xlink="http://www.w3.org/1999/xlink" data-name="Layer 1" width="674.81823" height="590.59868" style=""><rect id="backgroundrect" width="100%" height="100%" x="0" y="0" fill="none" stroke="none"/><g class="currentLayer" style=""><title>Layer 1</title><path d="M32.56148865234377,201.25794692382811 l-32.53806,-18.32671 a120.49146,120.49146 0 0 1 12.68417,-56.56929 c7.5018,34.04891 46.98122,50.24832 65.19652,79.97724 a72.47584,72.47584 0 0 1 5.88427,62.54382 l2.14,26.39926 a121.44657,121.44657 0 0 1 -76.24937,-67.27817 a117.31036,117.31036 0 0 1 -8.13843,-28.28193 C16.711228652343777,201.33655692382814 32.56148865234377,201.25794692382811 32.56148865234377,201.25794692382811 z" fill="#f2f2f2" id="svg_1"/><path d="M617.4870086523438,534.6701269238281 l0.99775,-22.43416 a72.4554,72.4554 0 0 1 33.79562,-8.555 c-16.23146,13.27042 -14.203,38.85123 -25.20757,56.6968 a43.58207,43.58207 0 0 1 -31.95921,20.13989 l-13.58307,8.31649 A73.02986,73.02986 0 0 1 596.9233686523437,529.6553469238281 a70.543,70.543 0 0 1 12.96441,-12.04606 C613.1409486523437,526.1872469238281 617.4870086523438,534.6701269238281 617.4870086523438,534.6701269238281 z" fill="#f2f2f2" id="svg_2"/><polygon points="582.489 577.289 570.189 577.288 564.338 529.848 582.491 529.849 582.489 577.289" fill="#ffb6b6" id="svg_3"/><path d="M585.6253186523437,589.2111769238281 l-39.658,-0.0014700000000000004 v-0.50161 a15.43685,15.43685 0 0 1 15.436,-15.43577 h0.0010000000000000002 l7.24407,-5.49573 l13.51581,5.49657 l3.46191,0.00014000000000000004 z" fill="#2f2e41" id="svg_4"/><polygon points="525.348 577.289 513.049 577.288 507.198 529.848 525.351 529.849 525.348 577.289" fill="#ffb6b6" id="svg_5"/><path d="M528.4850486523437,589.2111769238281 l-39.658,-0.0014700000000000004 v-0.50161 a15.43685,15.43685 0 0 1 15.436,-15.43577 h0.0010000000000000002 l7.24407,-5.49573 l13.51581,5.49657 l3.4619,0.00014000000000000004 z" fill="#2f2e41" id="svg_6"/><path d="M520.0246186523437,317.9302069238281 l80,2 c15.19373,8.25247 15.42444,26.11377 10.44617,47.32025 c0,0 1.68058,12.60446 -1.6806100000000002,15.96565 s-5.04179,3.36119 -3.36119,9.24328 s-7.19878,15.48928 -6.12029,16.56777 s3.59939,6.96058 3.59939,6.96058 l-8.403,47.897 s-5.88209,83.18952 -7.56268,84.87011 s-3.36119,0 -1.6806,4.20149 s3.36119,2.5209 1.6806,4.20149 a61.88778,61.88778 0 0 0 -4.20149,5.04179 h-20.316 s-1.53172,-8.403 -1.53172,-9.24328 s-1.6806,-5.88208 -1.6806,-6.72238 s1.4854100000000001,-2.32571 1.4854100000000001,-2.32571 a27.6452,27.6452 0 0 0 1.03548,-5.237 c0,-1.68059 5.04179,-66.38355 5.04179,-66.38355 l-10.08357,-84.02981 l-24.36865,82.34922 s0,72.26563 -1.6806,73.94623 s-1.68059,0.8403 -0.8402900000000001,4.20149 s4.20149,2.5209 1.68059,5.04179 s-3.36119,-1.6806 -2.52089,2.52089 l0.8403,4.2015 l-25.209,0.36060000000000003 s-3.36119,-7.083 -1.68059,-9.60388 s1.57976,-1.83278 -0.47057000000000004,-5.9581800000000005 s-2.8906300000000003,-4.9657 -2.05033,-5.806 s0.8403,-5.30976 0.8403,-5.30976 l4.20149,-80.40065 s0.8403,-84.87011 0.8403,-87.391 a8.38157,8.38157 0 0 0 -0.6980000000000002,-3.7803 v-3.42178 l3.21893,-12.12478 z" fill="#2f2e41" id="svg_7"/><circle cx="568.0817260742188" cy="126.72634887695312" r="24.856449127197266" fill="#ffb6b6" id="svg_8"/><path d="M555.6534886523438,168.01119692382815 c-5.355,3.18356 -8.55835,9.03293 -10.39722,14.98517 a142.00821,142.00821 0 0 0 -6.10242,33.92892 l-1.94226,34.47532 l-24.05462,73.40765 c20.84735,17.64 99.20941,4.00906 99.20941,4.00906 s2.40545,-0.8017900000000001 0,-3.20727 s-4.74722,-0.27435000000000004 -2.34176,-2.6798400000000004 s0.74721,0.27435000000000004 -0.05460000000000002,-2.13114 s0,-0.80178 0.80181,-1.60363 s-6.20727,-8.01825 -6.20727,-8.01825 L610.9791186523438,269.0405269238281 l8.01819,-84.993 c-9.62189,-12.02732 -28.97268,-19.11734 -28.97268,-19.11734 l-5,-9 l-25,2 z" fill="#e6e6e6" id="svg_9"/><path d="M552.2443486523438,112.13869692382815 a11.74568,11.74568 0 0 1 2.8500900000000002,0.37400000000000005 a40.56522,40.56522 0 0 0 5.57911,0.93554 a25.8518,25.8518 0 0 1 23.14794,21.92774 c1.44434,-1.25928 4.731,-3.57568 7.42481,-1.42285 h0 c0.04100000000000001,0.03418000000000001 0.06494000000000001,0.05176000000000001 0.15967,0.006830000000000002 c1.78906,-0.8486300000000001 4.964840000000001,-11.29492 5.061,-20.49267 c0.050780000000000006,-4.88184 -0.7177700000000001,-11.11572 -4.666,-13.08985 l-0.20800000000000002,-0.10400000000000001 l-0.054690000000000016,-0.22607000000000002 c-0.26367,-1.09815 -3.21094,-2.97266 -8.333,-4.43164 c-9.30859,-2.65137 -23.18418,-7.81629 -30.99766,-0.21521000000000004 c-0.5913,2.5625 -2.515,8.04626 -4.45839,8.66784 c-2.15186,0.6880000000000002 -4.01026,1.28174 -4.30322,3.92139 a80.90954,80.90954 0 0 0 0.05322000000000001,11.2793 a11.51926,11.51926 0 0 1 4.09228,-5.74854 A8.11106,8.11106 0 0 1 552.2443486523438,112.13869692382815 z" fill="#2f2e41" id="svg_10"/><path d="M505.9792586523438,249.48144692382812 l40.60315,-26.00339 l-20.4505,-27.18528 l-20.19359,24.84 l-62.91881,3.85893 a11.99113,11.99113 0 1 0 -0.6712100000000001,17.670650000000002 z" fill="#ffb6b6" id="svg_11"/><path d="M584.2676086523437,187.1825069238281 c2.35656,14.26167 -42.14558,41.49536 -42.14558,41.49536 c-0.0007000000000000002,-3.34743 -26.56183,21.92349 -27.76074,19.14726 c-3.40742,-7.8903 -5.80313,-26.57884 -10.56448,-29.57011 c-2.7229400000000004,-1.71066 16.39926,-17.78078 16.39926,-17.78078 s10.00953,-10.08383 23.14493,-22.80307 a30.64421,30.64421 0 0 1 28.38206,-8.29616 S581.9110286523437,172.92085692382813 584.2676086523437,187.1825069238281 z" fill="#e6e6e6" id="svg_12"/><path d="M667.9572086523438,256.3069669238281 l-26.8573,-40.04345 l-26.74616,21.02154 l25.26206,19.66309 l5.19033,62.823 a11.991109999999999,11.991109999999999 0 1 0 17.68089,0.29689000000000004 z" fill="#ffb6b6" id="svg_13"/><path d="M604.0145386523437,179.3553469238281 c14.20857,-2.6580000000000004 42.37846,41.2575 42.37846,41.2575 c-3.34667,0.07157000000000001 22.481,26.09165 19.73078,27.34908 c-7.81638,3.5737300000000003 -26.45,6.36462 -29.33979,11.18824 c-1.6526200000000002,2.75855 -18.124,-16.01909 -18.124,-16.01909 s-10.293520000000001,-9.79376 -23.288,-22.6569 a30.64421,30.64421 0 0 1 -8.89528,-28.2 S589.8059886523438,182.01334692382812 604.0145386523437,179.3553469238281 z" fill="#e6e6e6" id="svg_14"/><path d="M415.16182865234373,228.7921069238281 H74.99176865234375 a20.06844,20.06844 0 0 0 -20.0458,20.04579 V460.6260869238281 a20.06862,20.06862 0 0 0 20.0458,20.04579 H415.16154865234375 a20.0685,20.0685 0 0 0 20.04607,-20.04579 V248.8378969238281 A20.06826,20.06826 0 0 0 415.16182865234373,228.7921069238281 z" fill="#6c63ff" id="svg_16"/><path d="M415.16182865234373,228.7921069238281 H74.99176865234375 a20.06844,20.06844 0 0 0 -20.0458,20.04579 V460.6260869238281 a20.06862,20.06862 0 0 0 20.0458,20.04579 H415.16154865234375 a20.0685,20.0685 0 0 0 20.04607,-20.04579 V248.8378969238281 A20.06826,20.06826 0 0 0 415.16182865234373,228.7921069238281 zm6.5784400000000005,152.13011 A82.40625,82.40625 0 0 1 340.7218186523437,463.0059469238281 c-34.51645,0.4493100000000001 19.0976,0.62451 -22.53172,0.62451 c-95.19269,0 -194.45228,-0.90963 -231.48716,-1.49943 A18.67483,18.67483 0 0 1 68.41332865234375,443.5323469238281 V248.85360692382812 a6.60062,6.60062 0 0 1 6.57706,-6.59332 H415.14804865234373 a6.5999300000000005,6.5999300000000005 0 0 1 6.59222,6.57569 z" fill="#3f3d56" id="svg_17"/><path d="M373.28740865234374,106.83780692382811 H114.11358865234376 a11.139,11.139 0 0 0 -10.471,7.38381 l-40.02762,112.2998 a11.11665,11.11665 0 0 0 10.45539,14.84872 l347.59461,0.6168900000000002 h0.015480000000000002 a11.11649,11.11649 0 0 0 10.21729,-15.4952 l-0.6060700000000001,0.25947000000000003 l0.6060700000000001,-0.25947000000000003 l-48.393,-112.91669 A11.10292,11.10292 0 0 0 373.28740865234374,106.83780692382811 z" fill="#3f3d56" id="svg_18"/><path d="M432.7976486523437,228.93050692382815 a11.14573,11.14573 0 0 1 -0.9,4.38 l-48.39,86.92 a11.14705,11.14705 0 0 1 -10.22,6.73 h-259.17 a11.14664,11.14664 0 0 1 -10.48,-7.38 l-40.02,-86.3 a11.10932,11.10932 0 0 1 6.74,-14.2 a10.93694,10.93694 0 0 1 3.71,-0.6500000000000001 l42.46,-0.07995000000000001 l17.33,-0.030000000000000006 l228.04,-0.4 l17.34,-0.030000000000000006 l42.43,-0.08000000000000002 h0.010000000000000002 A11.12186,11.12186 0 0 1 432.7976486523437,228.93050692382815 z" fill="#3f3d56" id="svg_19"/><path d="M100.49357865234373,387.6576969238281 c5.13935,0 75.714,4.31317 75.714,9.45252 s-70.57469,9.15868 -75.714,9.15868 a9.3056,9.3056 0 1 1 0,-18.6112 z" fill="#3f3d56" id="svg_20"/><path d="M357.14762865234377,38.52053692382813 h-218.53 a22.11557,22.11557 0 0 0 -22.09,22.09 v266.35 h256.76 a10.9775,10.9775 0 0 0 5.95,-1.73 v-264.62 A22.11562,22.11562 0 0 0 357.14762865234377,38.52053692382813 z" fill="#e6e6e6" id="svg_21"/><path d="M273.73764865234375,56.43050692382812 h-119.76 a20.13965,20.13965 0 0 0 -20.12,20.11005 v250.42 h228.04 v-182.37 A88.26188,88.26188 0 0 0 273.73764865234375,56.43050692382812 z" fill="#fff" id="svg_22"/><path d="M323.0476486523437,304.7205469238281 h-150.34 a4.9,4.9 0 1 0 0,9.8 h150.34 a4.9,4.9 0 1 0 0,-9.8 z" fill="#e4e4e4" id="svg_23"/><path d="M323.0476486523437,285.34054692382813 h-150.34 a4.905,4.905 0 0 0 0,9.81 h150.34 a4.905,4.905 0 1 0 0,-9.81 z" fill="#e4e4e4" id="svg_24"/><path d="M237.87760865234372,265.9705469238281 h-65.17 a4.9,4.9 0 1 0 0,9.8 h65.17 a4.9,4.9 0 1 0 0,-9.8 z" fill="#e4e4e4" id="svg_25"/><path d="M323.0476486523437,225.3905369238281 h-150.34 a4.905,4.905 0 0 0 0,9.81 h150.34 a4.905,4.905 0 1 0 0,-9.81 z" fill="#e4e4e4" id="svg_26"/><path d="M323.0476486523437,206.0205369238281 h-150.34 a4.9,4.9 0 1 0 0,9.8 h150.34 a4.9,4.9 0 1 0 0,-9.8 z" fill="#e4e4e4" id="svg_27"/><path d="M237.87760865234372,186.6405369238281 h-65.17 a4.905,4.905 0 0 0 0,9.81 h65.17 a4.905,4.905 0 1 0 0,-9.81 z" fill="#e4e4e4" id="svg_28"/><path d="M323.0476486523437,146.06051692382812 h-150.34 a4.905,4.905 0 0 0 0,9.81 h150.34 a4.905,4.905 0 1 0 0,-9.81 z" fill="#6c63ff" id="svg_29"/><path d="M323.0476486523437,126.69051692382811 h-150.34 a4.905,4.905 0 0 0 0,9.81 h150.34 a4.905,4.905 0 1 0 0,-9.81 z" fill="#6c63ff" id="svg_30"/><path d="M237.87760865234372,107.31051692382812 h-65.17 a4.905,4.905 0 0 0 0,9.81 h65.17 a4.905,4.905 0 1 0 0,-9.81 z" fill="#6c63ff" id="svg_31"/><circle cx="371.0447998046875" cy="38.162811279296875" r="38.162818908691406" fill="#6c63ff" id="svg_32"/><path d="M365.83859865234376,58.02478692382812 a4.24383,4.24383 0 0 1 -3.39572,-1.6983800000000002 l-10.4114,-13.8821 a4.245,4.245 0 1 1 6.79214,-5.09376 l6.8115,9.0813 l17.49444,-26.24132 a4.24516,4.24516 0 1 1 7.06438,4.70959 L369.37111865234374,56.13434692382813 a4.24687,4.24687 0 0 1 -3.41438,1.8890900000000002 C365.9173686523437,58.024096923828125 365.8779886523438,58.02478692382812 365.83859865234376,58.02478692382812 z" fill="#fff" id="svg_33"/></g></svg>