<svg width="439" height="331" viewBox="0 0 439 331" fill="none" xmlns="http://www.w3.org/2000/svg">
<path d="M255.717 58.4732C263.944 58.4732 270.614 51.5796 270.614 43.0759C270.614 34.5721 263.944 27.6785 255.717 27.6785C247.489 27.6785 240.819 34.5721 240.819 43.0759C240.819 51.5796 247.489 58.4732 255.717 58.4732Z" fill="#F2F2F2"/>
<path d="M371.281 286.987C393.425 269.555 404.001 240.263 397.38 212.32C397.215 211.625 397.041 210.933 396.859 210.241C392.469 193.655 381.609 177.89 365.781 172.59C352.491 168.14 337.985 171.562 324.12 169.793C296.903 166.319 275.802 143.558 260.955 119.727C246.108 95.8963 234.697 69.221 214.968 49.5333C182.449 17.0814 129.401 10.0944 89.0818 31.2182C48.7623 52.3421 23.0792 99.207 24.1745 145.914C25.2699 192.621 52.0974 237.276 91.0578 260.968C105.37 269.672 121.924 275.837 138.398 273.68C152.693 271.808 165.681 263.869 179.908 261.512C202.277 257.807 224.503 268.26 243.85 280.441C263.197 292.621 281.885 307.059 303.87 312.706C325.218 318.19 351.666 302.429 371.281 286.987Z" fill="#F2F2F2"/>
<path d="M339.466 32.199C338.981 31.8646 338.49 31.5474 338.005 31.2245C323.973 21.9493 308.933 14.4142 293.196 8.77495L289.547 60.8015H266.415V1.1803C264.959 0.8689 263.491 0.574803 262.024 0.298004V60.8015H234.534C219.401 60.8015 204.887 54.5881 194.186 43.5281C183.485 32.468 177.474 17.4674 177.474 1.82623V1.82618C176.001 2.15487 174.539 2.50664 173.077 2.88147V60.8015H150.687L147.211 11.1912C131.039 17.6015 115.685 26.0315 101.493 36.2933C101.247 36.4663 101.002 36.6451 100.762 36.8181C99.529 37.7119 98.3127 38.6231 97.102 39.5457V238.027H163.09L161.924 221.333L155.507 129.672H284.721L278.305 221.333L277.139 238.027H342.396V34.2058C341.425 33.5254 340.448 32.8564 339.466 32.199ZM173.077 114.535H154.447L151.005 65.3456H173.077V114.535ZM262.024 114.535H230.735V113.56C230.735 113.092 230.645 112.628 230.472 112.195C230.298 111.763 230.044 111.369 229.723 111.038C229.402 110.707 229.021 110.445 228.602 110.266C228.183 110.087 227.734 109.996 227.281 109.997H213.678C213.226 109.996 212.777 110.089 212.359 110.268C211.94 110.447 211.56 110.709 211.24 111.04C210.92 111.371 210.666 111.764 210.492 112.196C210.319 112.629 210.23 113.092 210.23 113.56V114.535H177.474V65.3456H262.024V114.535ZM266.415 114.535V65.3456H289.229L285.787 114.535H266.415Z" fill="#3F3D56"/>
<path d="M-1.88351e-05 250.738C4.84697 256.673 10.0895 262.252 15.6893 267.432L423.311 268.009C428.91 262.829 434.153 257.25 439 251.314L-1.88351e-05 250.738Z" fill="#3F3D56"/>
<path d="M276.421 197.281V246.704C276.422 247.333 276.664 247.937 277.095 248.383C277.526 248.828 278.11 249.078 278.719 249.079H349.581C350.19 249.078 350.774 248.828 351.205 248.383C351.636 247.937 351.878 247.333 351.879 246.704V197.281C351.877 196.652 351.635 196.049 351.204 195.604C350.773 195.159 350.189 194.909 349.581 194.908H278.719C278.111 194.909 277.527 195.159 277.096 195.604C276.665 196.049 276.423 196.652 276.421 197.281Z" fill="#3F3D56"/>
<path d="M278.084 197.896V246.094C278.084 246.43 278.214 246.753 278.444 246.991C278.674 247.229 278.986 247.363 279.312 247.363H348.991C349.316 247.363 349.628 247.229 349.859 246.991C350.089 246.753 350.218 246.43 350.219 246.094V197.896C350.219 197.559 350.09 197.236 349.859 196.998C349.629 196.759 349.317 196.625 348.991 196.624H279.312C278.986 196.625 278.673 196.759 278.443 196.998C278.213 197.236 278.084 197.559 278.084 197.896Z" fill="#6C63FF"/>
<path d="M274.939 256.342C275.069 256.51 275.234 256.646 275.422 256.739C275.61 256.832 275.815 256.88 276.024 256.878H351.899C352.107 256.878 352.312 256.83 352.499 256.738C352.686 256.645 352.851 256.511 352.982 256.344C353.113 256.178 353.206 255.983 353.254 255.775C353.303 255.566 353.307 255.349 353.264 255.139L352.086 249.357C352.037 249.121 351.932 248.902 351.78 248.719C351.629 248.536 351.435 248.395 351.217 248.309C351.059 248.245 350.891 248.212 350.721 248.212H277.197C277.027 248.212 276.859 248.245 276.701 248.309C276.483 248.395 276.289 248.536 276.138 248.719C275.986 248.902 275.881 249.121 275.832 249.357L274.654 255.139C274.612 255.349 274.616 255.566 274.665 255.774C274.715 255.982 274.808 256.176 274.939 256.342Z" fill="#2F2E41"/>
<path d="M348.118 250.703H349.91C350.06 250.703 350.182 250.577 350.182 250.421V249.535C350.182 249.38 350.06 249.254 349.91 249.254H348.118C347.967 249.254 347.846 249.38 347.846 249.535V250.421C347.846 250.577 347.967 250.703 348.118 250.703Z" fill="#3F3D56"/>
<path d="M343.444 250.703H345.236C345.387 250.703 345.509 250.577 345.509 250.421V249.535C345.509 249.38 345.387 249.254 345.236 249.254H343.444C343.294 249.254 343.172 249.38 343.172 249.535V250.421C343.172 250.577 343.294 250.703 343.444 250.703Z" fill="#3F3D56"/>
<path d="M338.77 250.703H340.562C340.713 250.703 340.835 250.577 340.835 250.421V249.535C340.835 249.38 340.713 249.254 340.562 249.254H338.77C338.62 249.254 338.498 249.38 338.498 249.535V250.421C338.498 250.577 338.62 250.703 338.77 250.703Z" fill="#3F3D56"/>
<path d="M334.096 250.703H335.888C336.039 250.703 336.161 250.577 336.161 250.421V249.535C336.161 249.38 336.039 249.254 335.888 249.254H334.096C333.946 249.254 333.824 249.38 333.824 249.535V250.421C333.824 250.577 333.946 250.703 334.096 250.703Z" fill="#3F3D56"/>
<path d="M329.422 250.703H331.215C331.365 250.703 331.487 250.577 331.487 250.421V249.535C331.487 249.38 331.365 249.254 331.215 249.254H329.422C329.272 249.254 329.15 249.38 329.15 249.535V250.421C329.15 250.577 329.272 250.703 329.422 250.703Z" fill="#3F3D56"/>
<path d="M324.749 250.703H326.541C326.691 250.703 326.813 250.577 326.813 250.421V249.535C326.813 249.38 326.691 249.254 326.541 249.254H324.749C324.598 249.254 324.476 249.38 324.476 249.535V250.421C324.476 250.577 324.598 250.703 324.749 250.703Z" fill="#3F3D56"/>
<path d="M320.075 250.703H321.867C322.017 250.703 322.139 250.577 322.139 250.421V249.535C322.139 249.38 322.017 249.254 321.867 249.254H320.075C319.924 249.254 319.802 249.38 319.802 249.535V250.421C319.802 250.577 319.924 250.703 320.075 250.703Z" fill="#3F3D56"/>
<path d="M315.401 250.703H317.193C317.343 250.703 317.465 250.577 317.465 250.421V249.535C317.465 249.38 317.343 249.254 317.193 249.254H315.401C315.25 249.254 315.128 249.38 315.128 249.535V250.421C315.128 250.577 315.25 250.703 315.401 250.703Z" fill="#3F3D56"/>
<path d="M310.727 250.703H312.519C312.67 250.703 312.792 250.577 312.792 250.421V249.535C312.792 249.38 312.67 249.254 312.519 249.254H310.727C310.577 249.254 310.455 249.38 310.455 249.535V250.421C310.455 250.577 310.577 250.703 310.727 250.703Z" fill="#3F3D56"/>
<path d="M306.053 250.703H307.845C307.996 250.703 308.118 250.577 308.118 250.421V249.535C308.118 249.38 307.996 249.254 307.845 249.254H306.053C305.903 249.254 305.781 249.38 305.781 249.535V250.421C305.781 250.577 305.903 250.703 306.053 250.703Z" fill="#3F3D56"/>
<path d="M301.379 250.703H303.171C303.322 250.703 303.444 250.577 303.444 250.421V249.535C303.444 249.38 303.322 249.254 303.171 249.254H301.379C301.229 249.254 301.107 249.38 301.107 249.535V250.421C301.107 250.577 301.229 250.703 301.379 250.703Z" fill="#3F3D56"/>
<path d="M296.705 250.703H298.498C298.648 250.703 298.77 250.577 298.77 250.421V249.535C298.77 249.38 298.648 249.254 298.498 249.254H296.705C296.555 249.254 296.433 249.38 296.433 249.535V250.421C296.433 250.577 296.555 250.703 296.705 250.703Z" fill="#3F3D56"/>
<path d="M292.031 250.703H293.824C293.974 250.703 294.096 250.577 294.096 250.421V249.535C294.096 249.38 293.974 249.254 293.824 249.254H292.031C291.881 249.254 291.759 249.38 291.759 249.535V250.421C291.759 250.577 291.881 250.703 292.031 250.703Z" fill="#3F3D56"/>
<path d="M287.358 250.703H289.15C289.3 250.703 289.422 250.577 289.422 250.421V249.535C289.422 249.38 289.3 249.254 289.15 249.254H287.358C287.207 249.254 287.085 249.38 287.085 249.535V250.421C287.085 250.577 287.207 250.703 287.358 250.703Z" fill="#3F3D56"/>
<path d="M282.684 250.703H284.476C284.626 250.703 284.748 250.577 284.748 250.421V249.535C284.748 249.38 284.626 249.254 284.476 249.254H282.684C282.533 249.254 282.411 249.38 282.411 249.535V250.421C282.411 250.577 282.533 250.703 282.684 250.703Z" fill="#3F3D56"/>
<path d="M278.01 250.703H279.802C279.952 250.703 280.074 250.577 280.074 250.421V249.535C280.074 249.38 279.952 249.254 279.802 249.254H278.01C277.859 249.254 277.737 249.38 277.737 249.535V250.421C277.737 250.577 277.859 250.703 278.01 250.703Z" fill="#3F3D56"/>
<path d="M348.173 253.118H349.965C350.116 253.118 350.238 252.992 350.238 252.837V251.95C350.238 251.795 350.116 251.669 349.965 251.669H348.173C348.023 251.669 347.901 251.795 347.901 251.95V252.837C347.901 252.992 348.023 253.118 348.173 253.118Z" fill="#3F3D56"/>
<path d="M343.499 253.118H345.291C345.442 253.118 345.564 252.992 345.564 252.837V251.95C345.564 251.795 345.442 251.669 345.291 251.669H343.499C343.349 251.669 343.227 251.795 343.227 251.95V252.837C343.227 252.992 343.349 253.118 343.499 253.118Z" fill="#3F3D56"/>
<path d="M338.825 253.118H340.618C340.768 253.118 340.89 252.992 340.89 252.837V251.95C340.89 251.795 340.768 251.669 340.618 251.669H338.825C338.675 251.669 338.553 251.795 338.553 251.95V252.837C338.553 252.992 338.675 253.118 338.825 253.118Z" fill="#3F3D56"/>
<path d="M334.152 253.118H335.944C336.094 253.118 336.216 252.992 336.216 252.837V251.95C336.216 251.795 336.094 251.669 335.944 251.669H334.152C334.001 251.669 333.879 251.795 333.879 251.95V252.837C333.879 252.992 334.001 253.118 334.152 253.118Z" fill="#3F3D56"/>
<path d="M329.478 253.118H331.27C331.42 253.118 331.542 252.992 331.542 252.837V251.95C331.542 251.795 331.42 251.669 331.27 251.669H329.478C329.327 251.669 329.205 251.795 329.205 251.95V252.837C329.205 252.992 329.327 253.118 329.478 253.118Z" fill="#3F3D56"/>
<path d="M324.804 253.118H326.596C326.746 253.118 326.868 252.992 326.868 252.837V251.95C326.868 251.795 326.746 251.669 326.596 251.669H324.804C324.653 251.669 324.531 251.795 324.531 251.95V252.837C324.531 252.992 324.653 253.118 324.804 253.118Z" fill="#3F3D56"/>
<path d="M320.13 253.118H321.922C322.073 253.118 322.194 252.992 322.194 252.837V251.95C322.194 251.795 322.073 251.669 321.922 251.669H320.13C319.98 251.669 319.858 251.795 319.858 251.95V252.837C319.858 252.992 319.98 253.118 320.13 253.118Z" fill="#3F3D56"/>
<path d="M315.456 253.118H317.248C317.399 253.118 317.521 252.992 317.521 252.837V251.95C317.521 251.795 317.399 251.669 317.248 251.669H315.456C315.306 251.669 315.184 251.795 315.184 251.95V252.837C315.184 252.992 315.306 253.118 315.456 253.118Z" fill="#3F3D56"/>
<path d="M310.782 253.118H312.574C312.725 253.118 312.847 252.992 312.847 252.837V251.95C312.847 251.795 312.725 251.669 312.574 251.669H310.782C310.632 251.669 310.51 251.795 310.51 251.95V252.837C310.51 252.992 310.632 253.118 310.782 253.118Z" fill="#3F3D56"/>
<path d="M306.108 253.118H307.9C308.051 253.118 308.173 252.992 308.173 252.837V251.95C308.173 251.795 308.051 251.669 307.9 251.669H306.108C305.958 251.669 305.836 251.795 305.836 251.95V252.837C305.836 252.992 305.958 253.118 306.108 253.118Z" fill="#3F3D56"/>
<path d="M301.434 253.118H303.227C303.377 253.118 303.499 252.992 303.499 252.837V251.95C303.499 251.795 303.377 251.669 303.227 251.669H301.434C301.284 251.669 301.162 251.795 301.162 251.95V252.837C301.162 252.992 301.284 253.118 301.434 253.118Z" fill="#3F3D56"/>
<path d="M296.761 253.118H298.553C298.703 253.118 298.825 252.992 298.825 252.837V251.95C298.825 251.795 298.703 251.669 298.553 251.669H296.761C296.61 251.669 296.488 251.795 296.488 251.95V252.837C296.488 252.992 296.61 253.118 296.761 253.118Z" fill="#3F3D56"/>
<path d="M292.087 253.118H293.879C294.029 253.118 294.151 252.992 294.151 252.837V251.95C294.151 251.795 294.029 251.669 293.879 251.669H292.087C291.936 251.669 291.814 251.795 291.814 251.95V252.837C291.814 252.992 291.936 253.118 292.087 253.118Z" fill="#3F3D56"/>
<path d="M287.413 253.118H289.205C289.355 253.118 289.477 252.992 289.477 252.837V251.95C289.477 251.795 289.355 251.669 289.205 251.669H287.413C287.262 251.669 287.14 251.795 287.14 251.95V252.837C287.14 252.992 287.262 253.118 287.413 253.118Z" fill="#3F3D56"/>
<path d="M282.739 253.118H284.531C284.682 253.118 284.803 252.992 284.803 252.837V251.95C284.803 251.795 284.682 251.669 284.531 251.669H282.739C282.589 251.669 282.467 251.795 282.467 251.95V252.837C282.467 252.992 282.589 253.118 282.739 253.118Z" fill="#3F3D56"/>
<path d="M278.065 253.118H279.857C280.008 253.118 280.13 252.992 280.13 252.837V251.95C280.13 251.795 280.008 251.669 279.857 251.669H278.065C277.915 251.669 277.793 251.795 277.793 251.95V252.837C277.793 252.992 277.915 253.118 278.065 253.118Z" fill="#3F3D56"/>
<path d="M309.38 256.016H327.531C327.681 256.016 327.803 255.89 327.803 255.735V254.849C327.803 254.693 327.681 254.567 327.531 254.567H309.38C309.23 254.567 309.108 254.693 309.108 254.849V255.735C309.108 255.89 309.23 256.016 309.38 256.016Z" fill="#3F3D56"/>
<path d="M290.15 207.169H288.563C288.082 207.169 287.692 207.572 287.692 208.069C287.692 208.566 288.082 208.969 288.563 208.969H290.15C290.631 208.969 291.021 208.566 291.021 208.069C291.021 207.572 290.631 207.169 290.15 207.169Z" fill="white"/>
<path d="M308.296 207.169H306.709C306.228 207.169 305.838 207.572 305.838 208.069C305.838 208.566 306.228 208.969 306.709 208.969H308.296C308.777 208.969 309.167 208.566 309.167 208.069C309.167 207.572 308.777 207.169 308.296 207.169Z" fill="white"/>
<path d="M313.437 207.169H311.851C311.37 207.169 310.98 207.572 310.98 208.069C310.98 208.566 311.37 208.969 311.851 208.969H313.437C313.918 208.969 314.308 208.566 314.308 208.069C314.308 207.572 313.918 207.169 313.437 207.169Z" fill="white"/>
<path d="M303.36 207.018H293.499C293.018 207.018 292.628 207.421 292.628 207.919C292.628 208.416 293.018 208.819 293.499 208.819H303.36C303.841 208.819 304.231 208.416 304.231 207.919C304.231 207.421 303.841 207.018 303.36 207.018Z" fill="white"/>
<path d="M327.555 207.018H317.694C317.213 207.018 316.823 207.421 316.823 207.919C316.823 208.416 317.213 208.819 317.694 208.819H327.555C328.036 208.819 328.426 208.416 328.426 207.919C328.426 207.421 328.036 207.018 327.555 207.018Z" fill="white"/>
<path d="M294.989 211.232H293.402C292.921 211.232 292.531 211.635 292.531 212.132C292.531 212.629 292.921 213.032 293.402 213.032H294.989C295.47 213.032 295.86 212.629 295.86 212.132C295.86 211.635 295.47 211.232 294.989 211.232Z" fill="white"/>
<path d="M313.135 211.232H311.548C311.067 211.232 310.677 211.635 310.677 212.132C310.677 212.629 311.067 213.032 311.548 213.032H313.135C313.616 213.032 314.006 212.629 314.006 212.132C314.006 211.635 313.616 211.232 313.135 211.232Z" fill="white"/>
<path d="M318.276 211.232H316.69C316.208 211.232 315.819 211.635 315.819 212.132C315.819 212.629 316.208 213.032 316.69 213.032H318.276C318.757 213.032 319.147 212.629 319.147 212.132C319.147 211.635 318.757 211.232 318.276 211.232Z" fill="white"/>
<path d="M308.199 211.082H298.338C297.857 211.082 297.467 211.485 297.467 211.982C297.467 212.479 297.857 212.882 298.338 212.882H308.199C308.68 212.882 309.07 212.479 309.07 211.982C309.07 211.485 308.68 211.082 308.199 211.082Z" fill="white"/>
<path d="M332.394 211.082H322.533C322.052 211.082 321.662 211.485 321.662 211.982C321.662 212.479 322.052 212.882 322.533 212.882H332.394C332.875 212.882 333.265 212.479 333.265 211.982C333.265 211.485 332.875 211.082 332.394 211.082Z" fill="white"/>
<path d="M299.828 215.296H298.241C297.76 215.296 297.37 215.699 297.37 216.196C297.37 216.693 297.76 217.096 298.241 217.096H299.828C300.309 217.096 300.699 216.693 300.699 216.196C300.699 215.699 300.309 215.296 299.828 215.296Z" fill="white"/>
<path d="M317.974 215.296H316.387C315.906 215.296 315.516 215.699 315.516 216.196C315.516 216.693 315.906 217.096 316.387 217.096H317.974C318.455 217.096 318.845 216.693 318.845 216.196C318.845 215.699 318.455 215.296 317.974 215.296Z" fill="white"/>
<path d="M323.115 215.296H321.528C321.047 215.296 320.657 215.699 320.657 216.196C320.657 216.693 321.047 217.096 321.528 217.096H323.115C323.596 217.096 323.986 216.693 323.986 216.196C323.986 215.699 323.596 215.296 323.115 215.296Z" fill="white"/>
<path d="M313.038 215.146H303.177C302.696 215.146 302.306 215.549 302.306 216.046C302.306 216.543 302.696 216.946 303.177 216.946H313.038C313.519 216.946 313.909 216.543 313.909 216.046C313.909 215.549 313.519 215.146 313.038 215.146Z" fill="white"/>
<path d="M337.233 215.146H327.371C326.89 215.146 326.5 215.549 326.5 216.046C326.5 216.543 326.89 216.946 327.371 216.946H337.233C337.714 216.946 338.104 216.543 338.104 216.046C338.104 215.549 337.714 215.146 337.233 215.146Z" fill="white"/>
<path d="M304.667 219.359H303.08C302.599 219.359 302.209 219.762 302.209 220.259C302.209 220.757 302.599 221.16 303.08 221.16H304.667C305.148 221.16 305.538 220.757 305.538 220.259C305.538 219.762 305.148 219.359 304.667 219.359Z" fill="white"/>
<path d="M322.813 219.359H321.226C320.745 219.359 320.355 219.762 320.355 220.259C320.355 220.757 320.745 221.16 321.226 221.16H322.813C323.294 221.16 323.684 220.757 323.684 220.259C323.684 219.762 323.294 219.359 322.813 219.359Z" fill="white"/>
<path d="M327.954 219.359H326.367C325.886 219.359 325.496 219.762 325.496 220.259C325.496 220.757 325.886 221.16 326.367 221.16H327.954C328.435 221.16 328.825 220.757 328.825 220.259C328.825 219.762 328.435 219.359 327.954 219.359Z" fill="white"/>
<path d="M317.877 219.209H308.016C307.535 219.209 307.145 219.612 307.145 220.109C307.145 220.606 307.535 221.009 308.016 221.009H317.877C318.358 221.009 318.748 220.606 318.748 220.109C318.748 219.612 318.358 219.209 317.877 219.209Z" fill="white"/>
<path d="M308.296 235.518H306.709C306.228 235.518 305.838 235.921 305.838 236.418C305.838 236.915 306.228 237.318 306.709 237.318H308.296C308.777 237.318 309.167 236.915 309.167 236.418C309.167 235.921 308.777 235.518 308.296 235.518Z" fill="white"/>
<path d="M313.437 235.518H311.851C311.37 235.518 310.98 235.921 310.98 236.418C310.98 236.915 311.37 237.318 311.851 237.318H313.437C313.918 237.318 314.308 236.915 314.308 236.418C314.308 235.921 313.918 235.518 313.437 235.518Z" fill="white"/>
<path d="M327.555 235.668H317.694C317.213 235.668 316.823 236.071 316.823 236.568C316.823 237.065 317.213 237.468 317.694 237.468H327.555C328.036 237.468 328.426 237.065 328.426 236.568C328.426 236.071 328.036 235.668 327.555 235.668Z" fill="white"/>
<path d="M290.15 235.518H288.563C288.082 235.518 287.692 235.921 287.692 236.418C287.692 236.915 288.082 237.318 288.563 237.318H290.15C290.631 237.318 291.021 236.915 291.021 236.418C291.021 235.921 290.631 235.518 290.15 235.518Z" fill="white"/>
<path d="M303.36 235.668H293.499C293.018 235.668 292.628 236.071 292.628 236.568C292.628 237.065 293.018 237.468 293.499 237.468H303.36C303.841 237.468 304.231 237.065 304.231 236.568C304.231 236.071 303.841 235.668 303.36 235.668Z" fill="white"/>
<path d="M294.989 231.454H293.402C292.921 231.454 292.531 231.857 292.531 232.354C292.531 232.851 292.921 233.254 293.402 233.254H294.989C295.47 233.254 295.86 232.851 295.86 232.354C295.86 231.857 295.47 231.454 294.989 231.454Z" fill="white"/>
<path d="M313.135 231.454H311.548C311.067 231.454 310.677 231.857 310.677 232.354C310.677 232.851 311.067 233.254 311.548 233.254H313.135C313.616 233.254 314.006 232.851 314.006 232.354C314.006 231.857 313.616 231.454 313.135 231.454Z" fill="white"/>
<path d="M318.276 231.454H316.69C316.208 231.454 315.819 231.857 315.819 232.354C315.819 232.851 316.208 233.254 316.69 233.254H318.276C318.757 233.254 319.147 232.851 319.147 232.354C319.147 231.857 318.757 231.454 318.276 231.454Z" fill="white"/>
<path d="M308.199 231.604H298.338C297.857 231.604 297.467 232.007 297.467 232.504C297.467 233.001 297.857 233.404 298.338 233.404H308.199C308.68 233.404 309.07 233.001 309.07 232.504C309.07 232.007 308.68 231.604 308.199 231.604Z" fill="white"/>
<path d="M299.828 227.39H298.241C297.76 227.39 297.37 227.793 297.37 228.291C297.37 228.788 297.76 229.191 298.241 229.191H299.828C300.309 229.191 300.699 228.788 300.699 228.291C300.699 227.793 300.309 227.39 299.828 227.39Z" fill="white"/>
<path d="M317.974 227.39H316.387C315.906 227.39 315.516 227.793 315.516 228.291C315.516 228.788 315.906 229.191 316.387 229.191H317.974C318.455 229.191 318.845 228.788 318.845 228.291C318.845 227.793 318.455 227.39 317.974 227.39Z" fill="white"/>
<path d="M323.115 227.39H321.528C321.047 227.39 320.657 227.793 320.657 228.291C320.657 228.788 321.047 229.191 321.528 229.191H323.115C323.596 229.191 323.986 228.788 323.986 228.291C323.986 227.793 323.596 227.39 323.115 227.39Z" fill="white"/>
<path d="M313.038 227.541H303.177C302.696 227.541 302.306 227.944 302.306 228.441C302.306 228.938 302.696 229.341 303.177 229.341H313.038C313.519 229.341 313.909 228.938 313.909 228.441C313.909 227.944 313.519 227.541 313.038 227.541Z" fill="white"/>
<path d="M304.667 223.327H303.08C302.599 223.327 302.209 223.73 302.209 224.227C302.209 224.724 302.599 225.127 303.08 225.127H304.667C305.148 225.127 305.538 224.724 305.538 224.227C305.538 223.73 305.148 223.327 304.667 223.327Z" fill="white"/>
<path d="M322.813 223.327H321.226C320.745 223.327 320.355 223.73 320.355 224.227C320.355 224.724 320.745 225.127 321.226 225.127H322.813C323.294 225.127 323.684 224.724 323.684 224.227C323.684 223.73 323.294 223.327 322.813 223.327Z" fill="white"/>
<path d="M327.954 223.327H326.367C325.886 223.327 325.496 223.73 325.496 224.227C325.496 224.724 325.886 225.127 326.367 225.127H327.954C328.435 225.127 328.825 224.724 328.825 224.227C328.825 223.73 328.435 223.327 327.954 223.327Z" fill="white"/>
<path d="M317.877 223.477H308.016C307.535 223.477 307.145 223.88 307.145 224.377C307.145 224.874 307.535 225.277 308.016 225.277H317.877C318.358 225.277 318.748 224.874 318.748 224.377C318.748 223.88 318.358 223.477 317.877 223.477Z" fill="white"/>
<path d="M281.715 283.141L274.266 270.972L297.645 251.71L307.295 240.661C308.549 239.225 310.145 238.155 311.924 237.557C313.704 236.958 315.604 236.853 317.434 237.252C319.265 237.65 320.963 238.539 322.358 239.828C323.752 241.117 324.795 242.762 325.382 244.598C326.252 247.319 326.065 250.283 324.861 252.864C323.656 255.445 321.529 257.442 318.927 258.433L303.668 264.243L281.715 283.141Z" fill="#FFB6B6"/>
<path d="M106.952 194.911V254.053H147.04V194.911C147.041 194.485 146.909 194.071 146.665 193.729C146.421 193.386 146.077 193.133 145.684 193.008C145.499 192.945 145.305 192.913 145.11 192.916H108.888C108.634 192.915 108.383 192.966 108.148 193.066C107.913 193.166 107.7 193.313 107.52 193.498C107.34 193.684 107.197 193.904 107.1 194.146C107.002 194.389 106.952 194.648 106.952 194.911ZM122.597 215.232C122.607 214.066 123.063 212.952 123.864 212.131C124.665 211.311 125.748 210.85 126.876 210.85C128.004 210.85 129.087 211.311 129.888 212.131C130.689 212.952 131.145 214.066 131.155 215.232V222.095C131.15 223.264 130.696 224.383 129.894 225.208C129.092 226.032 128.007 226.495 126.876 226.495C125.745 226.495 124.66 226.032 123.858 225.208C123.056 224.383 122.602 223.264 122.597 222.095V215.232Z" fill="#2F2E41"/>
<path d="M106.829 252.162V257.865C106.83 258.161 106.944 258.444 107.145 258.653C107.347 258.863 107.62 258.981 107.906 258.984H146.086C146.372 258.982 146.646 258.864 146.848 258.654C147.05 258.445 147.163 258.161 147.163 257.865V252.162H106.829Z" fill="#3F3D56"/>
<path d="M43.8877 105.805V213.791C43.8888 215.167 44.4181 216.486 45.3596 217.459C46.3011 218.432 47.5777 218.98 48.9092 218.981H203.738C205.07 218.98 206.346 218.432 207.288 217.459C208.229 216.486 208.759 215.167 208.76 213.791V105.805C208.756 104.43 208.226 103.112 207.285 102.141C206.344 101.169 205.068 100.622 203.738 100.621H48.9092C47.5789 100.622 46.3035 101.169 45.3623 102.141C44.4211 103.112 43.8909 104.43 43.8877 105.805Z" fill="#3F3D56"/>
<path d="M47.5199 107.148V212.459C47.5212 213.194 47.8043 213.899 48.3073 214.419C48.8103 214.938 49.4922 215.231 50.2036 215.232H202.449C203.161 215.231 203.843 214.938 204.346 214.419C204.849 213.899 205.132 213.194 205.133 212.459V107.148C205.133 106.412 204.85 105.706 204.347 105.185C203.844 104.664 203.162 104.37 202.449 104.369H50.2036C49.4914 104.371 48.8088 104.664 48.3057 105.185C47.8026 105.706 47.52 106.412 47.5199 107.148Z" fill="white"/>
<path d="M75.7741 258.597C75.9291 258.798 76.126 258.96 76.3502 259.071C76.5744 259.182 76.82 259.239 77.0685 259.238H167.645C167.893 259.237 168.137 259.18 168.361 259.07C168.584 258.959 168.781 258.799 168.937 258.6C169.093 258.401 169.204 258.169 169.263 257.92C169.321 257.671 169.325 257.412 169.274 257.162L167.868 250.259C167.81 249.977 167.684 249.716 167.503 249.497C167.322 249.278 167.09 249.11 166.83 249.008C166.642 248.931 166.441 248.892 166.239 248.892H78.469C78.2666 248.892 78.066 248.931 77.8776 249.008C77.6173 249.11 77.386 249.278 77.2048 249.497C77.0235 249.715 76.898 249.977 76.8398 250.259L75.4338 257.162C75.3837 257.412 75.3883 257.671 75.4472 257.919C75.5061 258.168 75.6177 258.399 75.7741 258.597Z" fill="#2F2E41"/>
<path d="M197.508 118.876H55.0528C54.9047 118.872 54.7638 118.809 54.6602 118.7C54.5567 118.59 54.4987 118.443 54.4987 118.29C54.4987 118.137 54.5567 117.99 54.6602 117.881C54.7638 117.771 54.9047 117.708 55.0528 117.705H197.508C197.657 117.708 197.797 117.771 197.901 117.881C198.005 117.99 198.063 118.137 198.063 118.29C198.063 118.443 198.005 118.59 197.901 118.7C197.797 118.809 197.657 118.872 197.508 118.876Z" fill="#3F3D56"/>
<path d="M64.7499 114.715C66.5835 114.715 68.0699 113.145 68.0699 111.207C68.0699 109.27 66.5835 107.7 64.7499 107.7C62.9163 107.7 61.4299 109.27 61.4299 111.207C61.4299 113.145 62.9163 114.715 64.7499 114.715Z" fill="#3F3D56"/>
<path d="M76.219 114.715C78.0526 114.715 79.539 113.145 79.539 111.207C79.539 109.27 78.0526 107.7 76.219 107.7C74.3854 107.7 72.899 109.27 72.899 111.207C72.899 113.145 74.3854 114.715 76.219 114.715Z" fill="#3F3D56"/>
<path d="M87.6881 114.715C89.5216 114.715 91.008 113.145 91.008 111.207C91.008 109.27 89.5216 107.7 87.6881 107.7C85.8545 107.7 84.3681 109.27 84.3681 111.207C84.3681 113.145 85.8545 114.715 87.6881 114.715Z" fill="#3F3D56"/>
<path d="M190.602 108.567H182.456C182.295 108.571 182.142 108.64 182.029 108.759C181.917 108.878 181.854 109.038 181.854 109.204C181.854 109.371 181.917 109.531 182.029 109.65C182.142 109.769 182.295 109.838 182.456 109.841H190.602C190.764 109.839 190.919 109.771 191.033 109.652C191.146 109.532 191.21 109.372 191.21 109.204C191.21 109.037 191.146 108.876 191.033 108.757C190.919 108.638 190.764 108.569 190.602 108.567Z" fill="#3F3D56"/>
<path d="M190.602 110.96H182.456C182.295 110.964 182.142 111.033 182.029 111.152C181.916 111.271 181.853 111.431 181.853 111.597C181.853 111.764 181.916 111.924 182.029 112.043C182.142 112.162 182.295 112.231 182.456 112.235H190.602C190.764 112.233 190.919 112.165 191.033 112.045C191.147 111.926 191.211 111.765 191.211 111.597C191.211 111.43 191.147 111.269 191.033 111.15C190.919 111.03 190.764 110.962 190.602 110.96Z" fill="#3F3D56"/>
<path d="M190.602 113.353H182.456C182.295 113.357 182.142 113.426 182.029 113.545C181.917 113.664 181.854 113.824 181.854 113.991C181.854 114.157 181.917 114.317 182.029 114.436C182.142 114.555 182.295 114.624 182.456 114.628H190.602C190.764 114.625 190.919 114.557 191.033 114.438C191.146 114.319 191.21 114.158 191.21 113.991C191.21 113.823 191.146 113.662 191.033 113.543C190.919 113.424 190.764 113.356 190.602 113.353Z" fill="#3F3D56"/>
<path d="M386.986 254.665C387.232 255.405 387.698 256.045 388.318 256.494C388.938 256.942 389.679 257.176 390.436 257.162L405.217 256.769C405.979 256.754 406.716 256.484 407.318 256C407.919 255.516 408.353 254.844 408.554 254.084L410.646 230.967C411.388 231.314 412.196 231.486 413.01 231.469C413.718 231.451 414.415 231.289 415.062 230.992C415.709 230.695 416.293 230.269 416.781 229.739C417.269 229.209 417.651 228.585 417.905 227.902C418.16 227.219 418.281 226.491 418.264 225.76C418.246 225.028 418.089 224.308 417.802 223.639C417.514 222.97 417.103 222.367 416.59 221.862C416.077 221.358 415.473 220.963 414.812 220.7C414.152 220.437 413.447 220.312 412.74 220.33C412.414 220.329 412.089 220.364 411.771 220.434C411.425 220.047 411.004 219.739 410.535 219.53C410.067 219.321 409.562 219.216 409.052 219.221L386.315 219.828C386.126 219.835 385.939 219.859 385.754 219.9C385.256 219.996 384.783 220.202 384.367 220.502C383.952 220.803 383.604 221.192 383.346 221.644C383.088 222.096 382.927 222.599 382.874 223.12C382.82 223.642 382.875 224.169 383.035 224.666L386.986 254.665ZM411.075 229.397L412.563 223.889C412.732 223.252 412.736 222.581 412.574 221.943C412.647 221.942 412.71 221.907 412.783 221.907C413.803 221.885 414.79 222.282 415.528 223.012C416.265 223.741 416.693 224.743 416.717 225.798C416.741 226.853 416.359 227.874 415.655 228.638C414.952 229.402 413.983 229.847 412.963 229.875C412.303 229.896 411.65 229.731 411.075 229.397Z" fill="#2F2E41"/>
<path d="M385.754 219.9C386.239 222.763 391.685 224.775 398.233 224.425C404.255 224.139 409.178 221.953 410.081 219.363C409.747 219.261 409.4 219.213 409.051 219.221L386.315 219.828C386.126 219.835 385.939 219.859 385.754 219.9Z" fill="#3F3D56"/>
<path d="M399.433 241.962C399.463 241.954 399.492 241.941 399.517 241.924L402.727 239.752C402.766 239.726 402.798 239.69 402.82 239.648C402.842 239.606 402.854 239.559 402.854 239.511C402.854 239.463 402.842 239.416 402.82 239.374C402.798 239.332 402.766 239.296 402.727 239.27L399.391 237.011C399.361 236.99 399.326 236.976 399.29 236.969C399.254 236.962 399.217 236.962 399.181 236.969C399.145 236.977 399.111 236.992 399.081 237.013C399.05 237.035 399.024 237.062 399.004 237.094C398.984 237.125 398.97 237.161 398.963 237.198C398.956 237.236 398.957 237.274 398.964 237.311C398.972 237.348 398.987 237.383 399.007 237.415C399.028 237.446 399.055 237.473 399.085 237.493L402.065 239.511L399.212 241.441C399.157 241.479 399.116 241.535 399.097 241.6C399.078 241.666 399.083 241.736 399.109 241.798C399.136 241.861 399.183 241.912 399.242 241.942C399.302 241.972 399.369 241.979 399.433 241.962H399.433Z" fill="#6C63FF"/>
<path d="M394.363 242.204C394.417 242.19 394.466 242.159 394.503 242.116C394.54 242.074 394.564 242.02 394.571 241.963C394.579 241.906 394.57 241.849 394.545 241.797C394.521 241.745 394.482 241.703 394.434 241.674L391.475 239.921L394.335 237.725C394.364 237.703 394.389 237.674 394.408 237.642C394.426 237.609 394.439 237.574 394.444 237.536C394.45 237.499 394.448 237.461 394.439 237.424C394.43 237.387 394.414 237.353 394.392 237.322C394.37 237.292 394.343 237.266 394.311 237.247C394.28 237.227 394.245 237.215 394.209 237.209C394.173 237.203 394.136 237.205 394.1 237.215C394.065 237.224 394.032 237.24 394.002 237.263L390.8 239.721C390.763 239.749 390.733 239.787 390.714 239.83C390.694 239.874 390.685 239.922 390.688 239.969C390.691 240.017 390.705 240.063 390.729 240.104C390.754 240.145 390.788 240.179 390.828 240.202L394.156 242.174C394.219 242.212 394.293 242.222 394.363 242.204Z" fill="#6C63FF"/>
<path d="M399.114 243.865C399.141 243.858 399.167 243.847 399.19 243.832C399.222 243.812 399.249 243.786 399.271 243.756C399.292 243.725 399.308 243.69 399.317 243.654C399.325 243.617 399.327 243.579 399.321 243.541C399.316 243.504 399.303 243.468 399.284 243.435L394.734 235.703C394.695 235.638 394.633 235.591 394.561 235.573C394.489 235.555 394.413 235.568 394.35 235.608C394.287 235.647 394.242 235.711 394.224 235.786C394.207 235.86 394.218 235.938 394.257 236.004L398.807 243.736C398.838 243.788 398.885 243.829 398.94 243.852C398.995 243.876 399.056 243.88 399.114 243.865Z" fill="#6C63FF"/>
<path d="M143.302 150.707H118.646C117.64 150.707 116.824 151.55 116.824 152.59V155.079C116.824 156.119 117.64 156.962 118.646 156.962H143.302C144.307 156.962 145.123 156.119 145.123 155.079V152.59C145.123 151.55 144.307 150.707 143.302 150.707Z" fill="#6C63FF"/>
<path d="M157.673 163.216H104.274C103.268 163.216 102.453 164.059 102.453 165.098V167.588C102.453 168.628 103.268 169.47 104.274 169.47H157.673C158.679 169.47 159.495 168.628 159.495 167.588V165.098C159.495 164.059 158.679 163.216 157.673 163.216Z" fill="#E6E6E6"/>
<path d="M157.673 175.725H104.274C103.268 175.725 102.453 176.567 102.453 177.607V180.097C102.453 181.136 103.268 181.979 104.274 181.979H157.673C158.679 181.979 159.495 181.136 159.495 180.097V177.607C159.495 176.567 158.679 175.725 157.673 175.725Z" fill="#E6E6E6"/>
<path d="M162.2 217.611L162.321 218.006L162.327 218.019L165.968 229.459L170.156 242.642L178.036 267.416L178.112 271.265V271.278L178.698 302.236L177.075 306.433L178.901 313.314C178.901 313.314 178.061 302.912 173.555 308.885C171.003 312.28 168.018 315.753 165.567 319.01C169.138 320.503 172.766 321.854 176.451 323.062C177.247 323.325 178.048 323.575 178.85 323.825C179.022 323.878 179.194 323.93 179.366 323.983C191.582 327.717 204.211 329.815 216.944 330.226C217.606 330.245 218.255 330.259 218.885 330.272C219.108 330.278 219.324 330.285 219.541 330.285C220.254 330.292 220.96 330.298 221.673 330.298C223.111 330.298 224.543 330.276 225.969 330.232C236.522 329.925 247.013 328.458 257.265 325.858C257.195 321.483 257.004 316.372 256.73 310.912C256.603 308.234 253.745 305.333 253.573 302.531C253.452 300.426 256.017 298.446 255.884 296.308C255.018 283.144 253.936 288.197 253.134 278.876C253.051 277.961 252.975 277.086 252.905 276.251C252.39 270.265 252.033 266.521 252.033 266.521L255.457 244.214L260.836 209.191L260.422 208.487L259.957 208.25L231.589 193.738L230.049 189.66C229.6 188.485 228.822 187.475 227.813 186.761C226.805 186.047 225.613 185.662 224.391 185.653L205.704 185.574C204.734 185.57 203.777 185.805 202.912 186.259C202.048 186.713 201.301 187.374 200.733 188.186L195.673 195.429L162.2 217.611Z" fill="#3F3D56"/>
<path d="M182.345 261.903L178.112 271.265L175.223 277.659L170.252 304.558L167.763 307.288L165.631 297.623L143.314 302.745C142.582 298.541 143.118 302.887 142.666 298.275C142.794 298.144 142.927 298.012 143.061 297.881C143.417 297.539 143.717 297.216 143.71 296.907C143.456 281.001 144.219 253.93 150.597 237.531C151.596 234.853 152.913 232.314 154.518 229.972C154.645 229.794 154.766 229.617 154.887 229.439C157.827 225.183 159.686 220.993 162.321 218.013V218.006C162.337 217.992 162.352 217.977 162.366 217.96C162.375 217.955 162.384 217.948 162.391 217.94L180.493 208.02L181.269 230.571L181.823 246.78L182.345 261.903Z" fill="#3F3D56"/>
<path d="M247.615 264.562L252.903 276.254L254.748 280.326L259.717 307.222L262.198 309.946L264.335 300.284L265.339 300.071L283.449 296.194L288.728 313.521C289.917 311.472 290.386 309.061 290.054 306.697C289.723 304.332 288.611 302.158 286.908 300.543C286.548 300.205 286.247 299.877 286.256 299.567C286.556 280.858 285.449 246.696 275.45 232.636C272.274 228.174 270.369 223.73 267.596 220.625C267.588 220.616 267.588 220.607 267.579 220.607L260.833 209.19L260.421 208.489L259.958 208.25L247.615 264.562Z" fill="#3F3D56"/>
<path d="M215.587 180.078C229.317 180.078 240.448 168.574 240.448 154.383C240.448 140.192 229.317 128.688 215.587 128.688C201.857 128.688 190.726 140.192 190.726 154.383C190.726 168.574 201.857 180.078 215.587 180.078Z" fill="#FFB6B6"/>
<path d="M249.189 136.435C248.997 136.222 248.764 136.052 248.507 135.934C248.249 135.816 247.97 135.753 247.688 135.749L248.062 134.676C248.184 134.338 248.217 133.973 248.158 133.618C248.098 133.262 247.948 132.93 247.724 132.654C247.499 132.378 247.207 132.169 246.878 132.048C246.55 131.927 246.196 131.899 245.853 131.966L244.491 132.237L244.62 131.297C244.669 130.947 244.629 130.589 244.504 130.26C244.379 129.931 244.174 129.641 243.907 129.418C243.641 129.196 243.323 129.049 242.986 128.992C242.648 128.936 242.302 128.97 241.981 129.094C241.689 129.213 241.375 129.262 241.062 129.239C240.75 129.216 240.446 129.121 240.173 128.961C239.899 128.806 239.662 128.591 239.477 128.331C239.292 128.071 239.164 127.772 239.102 127.456L238.628 125.092L238.577 124.965C236.267 120.986 231.826 118.091 226.392 117.03C221.554 116.079 216.594 116.563 211.813 117.019C209.916 117.203 207.773 117.411 205.988 118.541C204.47 119.51 203.187 121.447 203.449 123.402C198.735 121.909 193.68 124.89 191.175 128.65C188.206 133.125 187.721 138.73 187.643 143.113C187.431 153.481 189.501 161.964 193.78 168.33C194.093 168.791 194.171 169.754 194.79 170.077L194.662 169.864C195.354 170.222 196.057 170.798 195.794 171.415C195.041 173.191 200.046 177.118 203.572 178.416C210.005 180.786 218.558 180.584 224.573 179.731L224.785 178.26C226.955 177.955 228.484 177.372 228.914 176.461C229.673 175.792 230.32 175.192 230.883 174.639L230.889 174.633C230.9 174.621 230.922 174.604 230.933 174.593C233.651 171.9 234.281 170.366 234.566 168.03C234.839 165.741 234.354 163.417 233.857 161.324C244.313 162.996 229.739 149.813 239.481 147.265C239.593 147.229 239.707 147.2 239.821 147.178C240.106 147.109 240.391 147.04 240.664 146.959C241.982 146.589 243.244 146.032 244.413 145.304C247.136 143.591 248.034 141.319 249.44 138.759C249.643 138.394 249.728 137.972 249.683 137.554C249.638 137.136 249.465 136.744 249.189 136.435Z" fill="#2F2E41"/>
<path d="M303.516 266.392C303.511 267.401 303.499 268.814 303.455 270.561C303.449 270.803 303.444 271.051 303.438 271.305C303.366 274.517 303.293 277.21 303.176 280.203C303.17 280.41 303.165 280.612 303.154 280.82C302.997 284.995 302.752 289.856 302.328 297.555C301.541 311.775 300.169 299.509 298.79 304.498C298.723 304.746 298.651 305.04 298.584 305.386C298.375 306.641 298.023 307.866 297.535 309.036C296.804 309.486 296.051 309.918 295.309 310.351C293.194 311.567 291.046 312.738 288.881 313.851C287.665 314.474 286.443 315.085 285.216 315.673C285.02 315.766 284.831 315.858 284.641 315.944C278.355 318.949 271.877 321.504 265.253 323.591C263.958 323.995 262.669 324.387 261.364 324.75C260.002 325.142 258.641 325.511 257.263 325.857C247.011 328.459 236.52 329.926 225.968 330.234C224.545 330.28 223.111 330.298 221.672 330.298C220.958 330.298 220.255 330.292 219.54 330.286C219.323 330.286 219.105 330.28 218.888 330.274C218.257 330.257 217.604 330.246 216.946 330.228C204.213 329.818 191.584 327.719 179.369 323.983L178.85 323.827C178.046 323.574 177.248 323.326 176.45 323.06C172.768 321.855 169.14 320.506 165.565 319.012C162.837 317.876 160.14 316.658 157.475 315.356C157.451 315.349 157.428 315.338 157.408 315.322C156.85 315.056 156.286 314.78 155.729 314.497C155.656 314.457 155.578 314.416 155.5 314.376C153.419 313.326 151.36 312.227 149.323 311.077C147.61 307.012 145.2 306.233 143.705 302.658C143.27 301.596 142.955 300.485 142.768 299.348C142.768 299.336 142.762 299.325 142.762 299.308C142.918 301.453 142.098 295.502 142.756 299.285C142.751 299.215 142.745 299.14 142.74 299.054C142.723 298.846 142.701 298.593 142.667 298.275C140.753 278.963 140.876 256.877 140.045 238.677C139.989 237.501 139.931 236.374 139.872 235.298C139.855 234.94 139.833 234.589 139.81 234.243C139.849 234.139 139.894 234.029 139.944 233.925C139.955 233.896 139.968 233.867 139.983 233.839C140 233.803 140.018 233.769 140.039 233.735C140.05 233.718 140.067 233.695 140.078 233.678C140.086 233.658 140.096 233.639 140.106 233.62C140.156 233.539 140.212 233.453 140.274 233.372C140.301 233.337 140.324 233.308 140.352 233.28C140.371 233.25 140.393 233.223 140.419 233.199C140.436 233.171 140.456 233.146 140.48 233.124C140.502 233.101 140.525 233.072 140.552 233.043C140.564 233.025 140.58 233.009 140.597 232.997C140.641 232.945 140.69 232.896 140.742 232.853C140.941 232.664 141.154 232.49 141.378 232.334C141.456 232.282 141.54 232.23 141.618 232.172C142.18 231.825 142.773 231.531 143.387 231.296C143.599 231.215 143.811 231.14 144.04 231.06C144.123 231.036 144.201 231.008 144.285 230.979C144.408 230.938 144.531 230.898 144.659 230.869C145.295 230.673 145.981 230.506 146.723 230.35C146.813 230.333 146.907 230.316 147.002 230.293C147.136 230.264 147.276 230.241 147.415 230.218C147.605 230.183 147.8 230.148 147.995 230.114C149.653 229.843 151.533 229.641 153.608 229.508C153.804 229.497 153.999 229.485 154.194 229.474C154.423 229.462 154.652 229.451 154.886 229.439C155.081 229.428 155.282 229.422 155.483 229.416C155.678 229.404 155.879 229.399 156.086 229.393C156.649 229.376 157.229 229.358 157.821 229.347C159.506 229.312 161.28 229.324 163.144 229.364C164.008 229.387 164.89 229.41 165.794 229.451C165.855 229.451 165.911 229.456 165.967 229.456C166.753 229.485 167.546 229.52 168.36 229.566C168.929 229.595 169.504 229.624 170.079 229.658C170.62 229.693 171.167 229.727 171.719 229.768C172.149 229.791 172.578 229.825 173.014 229.854C173.382 229.883 173.75 229.912 174.118 229.935L174.62 229.97C174.894 229.993 175.167 230.01 175.446 230.039C176.06 230.091 176.674 230.143 177.299 230.195C177.918 230.252 178.548 230.31 179.179 230.368C179.809 230.425 180.445 230.489 181.081 230.552C181.148 230.558 181.21 230.564 181.271 230.569C181.851 230.633 182.432 230.69 183.017 230.754C183.151 230.765 183.291 230.777 183.425 230.794C183.983 230.852 184.553 230.92 185.116 230.982C185.289 231.001 185.461 231.02 185.635 231.04C186.077 231.089 186.512 231.132 186.956 231.186C187.542 231.256 188.139 231.319 188.72 231.4C189.172 231.452 189.623 231.504 190.075 231.561C190.784 231.648 191.504 231.74 192.223 231.838C192.497 231.873 192.77 231.907 193.044 231.948C195.097 232.213 197.172 232.507 199.281 232.813C202.478 233.28 205.726 233.787 208.995 234.335C212.27 234.883 215.564 235.461 218.876 236.071C219.713 236.226 220.55 236.382 221.393 236.544C221.772 236.619 222.151 236.693 222.531 236.768C223.178 236.89 223.825 237.016 224.472 237.143C225.12 237.27 225.767 237.397 226.414 237.53C227.184 237.685 227.96 237.841 228.73 237.997C233.801 239.035 238.845 240.142 243.766 241.301C244.575 241.491 245.384 241.687 246.188 241.878C247.794 242.264 249.386 242.656 250.964 243.054C251.399 243.158 251.828 243.267 252.258 243.377C253.329 243.654 254.401 243.931 255.455 244.213L255.639 244.265C256.415 244.461 257.173 244.663 257.932 244.871C259.723 245.355 261.484 245.845 263.216 246.341C264.365 246.67 265.502 247.002 266.625 247.339C268.304 247.84 269.95 248.348 271.552 248.861C271.948 248.988 272.344 249.115 272.734 249.236C273.906 249.611 275.061 249.991 276.183 250.372C277.075 250.672 277.946 250.977 278.805 251.283C279.664 251.589 280.507 251.894 281.332 252.2C281.862 252.396 282.387 252.604 282.911 252.8C283.665 253.088 284.407 253.376 285.132 253.665C285.355 253.751 285.573 253.843 285.79 253.93C285.93 253.993 286.064 254.045 286.198 254.103C286.46 254.213 286.728 254.316 286.984 254.426C287.247 254.53 287.503 254.639 287.76 254.755C288.011 254.858 288.268 254.968 288.513 255.078C288.764 255.181 289.01 255.291 289.255 255.406C289.462 255.493 289.662 255.585 289.858 255.677C290.254 255.856 290.65 256.035 291.035 256.219C291.225 256.312 291.414 256.398 291.604 256.49L292.039 256.698C292.101 256.733 292.162 256.761 292.223 256.79C292.363 256.859 292.508 256.934 292.647 257.004C292.971 257.159 293.289 257.327 293.602 257.482C294.02 257.701 294.427 257.92 294.818 258.134C295.214 258.353 295.599 258.572 295.967 258.785C296.029 258.82 296.084 258.855 296.146 258.889C296.229 258.935 296.313 258.987 296.397 259.033C296.681 259.201 296.955 259.374 297.228 259.541C297.764 259.881 298.271 260.216 298.746 260.55C298.852 260.625 298.952 260.7 299.058 260.769C299.41 261.029 299.744 261.282 300.057 261.542C300.057 261.548 300.057 261.548 300.062 261.548C300.169 261.628 300.269 261.715 300.369 261.796C300.453 261.876 300.542 261.946 300.626 262.026C300.916 262.286 301.184 262.534 301.429 262.787C301.512 262.866 301.59 262.949 301.664 263.035C301.696 263.063 301.726 263.094 301.753 263.128C301.865 263.243 301.965 263.358 302.06 263.474C302.075 263.49 302.088 263.507 302.099 263.526C302.233 263.687 302.356 263.849 302.473 264.01C302.529 264.091 302.59 264.171 302.64 264.252C302.707 264.35 302.774 264.454 302.83 264.552C302.88 264.633 302.925 264.719 302.969 264.8C303.088 265.008 303.189 265.226 303.271 265.452C303.333 265.605 303.384 265.763 303.421 265.925C303.464 266.078 303.495 266.234 303.516 266.392Z" fill="#2F2E41"/>
<path opacity="0.2" d="M303.516 266.392C303.511 267.401 303.499 268.814 303.455 270.561C303.449 270.803 303.438 271.051 303.432 271.305C303.377 273.756 303.293 276.783 303.176 280.203C303.17 280.41 303.165 280.612 303.154 280.82C302.997 284.995 302.752 289.856 302.328 297.555C301.541 311.775 300.169 299.509 298.79 304.498C294.963 302.064 290.767 299.515 286.281 296.897C285.472 296.424 284.656 295.95 283.832 295.473C274.86 290.3 264.84 284.879 254.378 279.511C253.965 279.297 253.547 279.084 253.134 278.876C229.17 266.634 203.014 254.726 181.823 246.779C177.734 245.245 173.828 243.861 170.157 242.645C162.424 240.09 155.74 238.302 150.595 237.53C145.239 236.722 141.54 237.011 140.045 238.677C139.989 237.501 139.931 236.374 139.872 235.298C139.849 234.94 139.827 234.589 139.805 234.243C139.839 234.148 139.884 234.057 139.927 233.966C139.934 233.952 139.938 233.939 139.944 233.926C139.955 233.896 139.968 233.867 139.983 233.839C140 233.803 140.018 233.769 140.039 233.735C140.057 233.694 140.08 233.656 140.106 233.62C140.156 233.539 140.212 233.453 140.273 233.372C140.319 233.311 140.367 233.254 140.419 233.199C140.436 233.171 140.456 233.146 140.48 233.124C140.502 233.101 140.525 233.072 140.552 233.043C140.564 233.025 140.58 233.009 140.597 232.997C140.641 232.945 140.69 232.896 140.742 232.853C140.941 232.664 141.154 232.49 141.378 232.334C141.456 232.282 141.54 232.23 141.618 232.172C142.18 231.825 142.772 231.531 143.387 231.296C143.599 231.215 143.811 231.14 144.04 231.059C144.123 231.036 144.201 231.008 144.285 230.979C144.408 230.938 144.531 230.898 144.659 230.869C145.295 230.673 145.981 230.506 146.723 230.35C146.946 230.304 147.181 230.258 147.415 230.218C147.605 230.183 147.8 230.148 147.995 230.114C149.653 229.843 151.533 229.641 153.608 229.508C153.804 229.497 153.999 229.485 154.194 229.474C154.423 229.462 154.652 229.451 154.886 229.439C155.081 229.428 155.282 229.422 155.483 229.416C155.678 229.404 155.879 229.399 156.086 229.393C156.649 229.376 157.229 229.358 157.821 229.347C159.506 229.318 161.28 229.329 163.144 229.37C164.008 229.387 164.89 229.416 165.794 229.456C165.85 229.456 165.911 229.462 165.967 229.462C166.753 229.485 167.551 229.526 168.36 229.566C168.929 229.595 169.504 229.624 170.079 229.658C170.62 229.693 171.167 229.727 171.719 229.768C172.149 229.791 172.578 229.825 173.013 229.854C173.382 229.883 173.75 229.912 174.118 229.935C174.559 229.97 175 230.004 175.446 230.039C176.06 230.091 176.674 230.143 177.299 230.194C177.918 230.252 178.548 230.31 179.179 230.367C179.809 230.425 180.445 230.489 181.081 230.552C181.148 230.558 181.21 230.564 181.271 230.569C181.851 230.633 182.432 230.69 183.017 230.754C186.265 231.094 189.607 231.492 193.044 231.948C195.097 232.219 197.176 232.509 199.281 232.818C202.478 233.285 205.726 233.793 208.995 234.335C212.27 234.883 215.564 235.461 218.876 236.071C219.713 236.226 220.55 236.382 221.393 236.544C222.419 236.74 223.446 236.939 224.473 237.143C225.12 237.27 225.767 237.397 226.414 237.53C227.184 237.685 227.96 237.841 228.73 237.997C233.801 239.035 238.845 240.142 243.766 241.301C244.575 241.491 245.384 241.687 246.188 241.878C247.794 242.264 249.386 242.656 250.964 243.054C251.399 243.164 251.828 243.273 252.258 243.383C253.335 243.66 254.401 243.936 255.455 244.213V244.219C255.516 244.23 255.578 244.248 255.639 244.265C256.409 244.467 257.173 244.669 257.932 244.876C259.723 245.361 261.485 245.849 263.216 246.341C264.365 246.675 265.504 247.004 266.625 247.339C268.304 247.846 269.95 248.354 271.552 248.861C271.948 248.988 272.344 249.115 272.735 249.236C273.906 249.617 275.056 249.995 276.183 250.372C277.075 250.672 277.946 250.977 278.805 251.283C279.664 251.589 280.507 251.894 281.332 252.2C281.868 252.396 282.392 252.598 282.911 252.794C283.67 253.082 284.407 253.371 285.132 253.665C285.355 253.751 285.573 253.843 285.79 253.93C286.198 254.091 286.594 254.259 286.984 254.426C287.247 254.53 287.503 254.639 287.76 254.755C288.011 254.858 288.268 254.968 288.513 255.078C288.764 255.181 289.01 255.291 289.255 255.406C289.462 255.493 289.662 255.585 289.858 255.677C290.254 255.856 290.65 256.035 291.035 256.219C291.225 256.312 291.414 256.398 291.604 256.49L292.039 256.698C292.101 256.733 292.162 256.761 292.223 256.79C292.698 257.021 293.155 257.252 293.602 257.482C294.02 257.701 294.427 257.92 294.818 258.134C295.281 258.388 295.722 258.636 296.146 258.889C296.229 258.935 296.313 258.987 296.397 259.033C296.681 259.201 296.955 259.374 297.228 259.541C297.764 259.881 298.272 260.216 298.746 260.55C299.214 260.884 299.65 261.213 300.057 261.542C300.057 261.548 300.057 261.548 300.062 261.548C300.258 261.709 300.447 261.871 300.626 262.026C300.916 262.286 301.184 262.534 301.429 262.787C301.512 262.866 301.59 262.949 301.664 263.035C301.696 263.063 301.726 263.094 301.753 263.128C301.87 263.26 301.987 263.393 302.099 263.526C302.233 263.687 302.356 263.849 302.473 264.01C302.529 264.091 302.59 264.171 302.64 264.252C302.707 264.35 302.774 264.454 302.83 264.552C302.88 264.633 302.925 264.719 302.969 264.8C303.088 265.008 303.189 265.226 303.271 265.452C303.332 265.605 303.382 265.763 303.421 265.925C303.464 266.078 303.495 266.234 303.516 266.392Z" fill="black"/>
</svg>
